#!OML:ASF E:\Steps\Project 1\Capture day 1\Session 2\Subject.ASF
:FULLY-SPECIFIED
:DEGREES
356
root 12.682 18.4502 11.6186 -149.289 4.8238 176.263
lowerback -16.0983 -2.61711 -10.0743
upperback 3.37929 -1.08097 -1.35408
thorax 13.1328 -1.15974 3.90302
lowerneck -3.89779 -0.420464 -0.421281
upperneck 18.7393 -0.0639465 3.30718
head 6.31802 0.574142 1.16122
rclavicle -1.74931e-014 -4.21423e-014
rhumerus -33.4558 -11.3746 -79.6844
rradius 41.6178
rwrist -6.77534
rhand -8.58545 -408.991
rfingers 7.12502
rthumb 17.3454 -78.2372
lclavicle -1.74931e-014 -4.21423e-014
lhumerus -15.1206 -6.8768 77.6909
lradius 46.2061
lwrist 4.00003
lhand -24.4793 -15.3866
lfingers 7.12502
lthumb 2.0145 14.5836
rfemur -43.0179 3.45964 9.67664
rtibia 59.1778
rfoot -8.87471 -10.5284
rtoes -25.2135
lfemur -52.6999 -6.18 -19.631
ltibia 24.0539
lfoot -1.74072 0.344725
ltoes -27.7985
357
root 12.6557 18.4724 11.5594 -149.265 5.05103 176.072
lowerback -16.3511 -2.65194 -10.2205
upperback 3.34931 -1.05059 -1.41785
thorax 13.2499 -1.15426 3.91813
lowerneck -4.12721 -0.527723 -0.346057
upperneck 19.2398 -0.179578 3.24717
head 6.52021 0.540233 1.12931
rclavicle 6.75868e-015 -3.73715e-014
rhumerus -33.6633 -11.799 -79.4545
rradius 41.201
rwrist -6.32955
rhand -8.52108 -409.431
rfingers 7.12502
rthumb 17.4074 -78.6719
lclavicle 6.75868e-015 -3.73715e-014
lhumerus -14.9978 -6.88736 77.66
lradius 46.5438
lwrist 4.10327
lhand -24.7576 -15.7191
lfingers 7.12502
lthumb 1.74567 14.2535
rfemur -44.3615 3.70192 9.62622
rtibia 60.2625
rfoot -10.5394 -10.0577
rtoes -25.4752
lfemur -52.283 -6.38871 -19.9579
ltibia 23.7034
lfoot -1.82455 0.543291
ltoes -26.9927
358
root 12.6358 18.4902 11.5039 -149.31 5.14727 176.046
lowerback -16.3501 -2.66758 -10.2725
upperback 3.27516 -1.07124 -1.38543
thorax 13.1679 -1.16423 3.97982
lowerneck -4.33682 -0.630144 -0.253071
upperneck 19.7835 -0.269849 3.10817
head 6.73319 0.516409 1.07093
rclavicle -1.39149e-014 3.10104e-014
rhumerus -33.9627 -12.0299 -79.224
rradius 40.7692
rwrist -6.08444
rhand -8.78722 -409.953
rfingers 7.12502
rthumb 17.1512 -79.2157
lclavicle -1.39149e-014 3.10104e-014
lhumerus -14.9265 -6.75615 77.7005
lradius 47.3568
lwrist 5.25875
lhand -23.9327 -14.2215
lfingers 7.12502
lthumb 2.54237 15.7431
rfemur -45.5588 4.02382 9.83411
rtibia 61.1374
rfoot -12.1776 -9.82142
rtoes -26.2573
lfemur -51.816 -6.48298 -20.1034
ltibia 23.3656
lfoot -1.90198 0.635145
ltoes -26.6309
359
root 12.6235 18.5045 11.453 -149.432 5.15633 176.322
lowerback -16.1367 -2.60793 -10.0887
upperback 3.17351 -1.09286 -1.26219
thorax 12.9181 -1.15816 4.01532
lowerneck -4.35369 -0.649351 -0.248206
upperneck 20.0787 -0.273146 3.14851
head 6.8314 0.534734 1.08737
rclavicle -8.74653e-015 -8.74653e-015
rhumerus -34.3057 -12.1755 -79.0255
rradius 40.3123
rwrist -5.99008
rhand -9.42691 -409.073
rfingers 7.12502
rthumb 16.5355 -78.3889
lclavicle -8.74653e-015 -8.74653e-015
lhumerus -15.0867 -6.90329 77.8514
lradius 46.7455
lwrist 3.16717
lhand -26.6145 -17.373
lfingers 7.12502
lthumb -0.047767 12.6068
rfemur -46.5447 4.49798 10.432
rtibia 61.5454
rfoot -13.5538 -10.0777
rtoes -26.1447
lfemur -51.3428 -6.35727 -19.899
ltibia 23.1188
lfoot -1.99408 0.664114
ltoes -26.1909
360
root 12.6046 18.5273 11.4009 -149.51 5.54214 176.032
lowerback -16.1284 -2.63459 -10.4318
upperback 3.28527 -1.03429 -1.3185
thorax 13.0488 -1.16009 4.15869
lowerneck -4.74431 -0.551418 -0.514499
upperneck 20.0181 -0.193457 3.39818
head 6.87951 0.562479 1.2178
rclavicle 1.31198e-014 3.18055e-014
rhumerus -34.0255 -12.4568 -78.9285
rradius 39.884
rwrist -5.72419
rhand -9.77736 -408.146
rfingers 7.12502
rthumb 16.198 -77.4895
lclavicle 1.31198e-014 3.18055e-014
lhumerus -14.6396 -6.79356 77.8925
lradius 47.5235
lwrist 4.22635
lhand -26.0892 -15.5601
lfingers 7.12502
lthumb 0.459586 14.4191
rfemur -47.6581 4.86063 10.2006
rtibia 61.8407
rfoot -14.9481 -10.4984
rtoes -24.4275
lfemur -50.8528 -6.3282 -20.4553
ltibia 22.7844
lfoot -2.1132 0.677029
ltoes -25.9743
361
root 12.5882 18.5478 11.3458 -149.793 5.55048 176.153
lowerback -16.1497 -2.7004 -10.3612
upperback 3.32161 -1.16311 -1.1618
thorax 13.1248 -1.23203 4.25735
lowerneck -4.20163 -0.481759 -0.697846
upperneck 19.8579 -0.0391573 3.31824
head 6.72863 0.616745 1.23019
rclavicle 7.95139e-016 -7.95139e-015
rhumerus -34.184 -12.5712 -78.6921
rradius 39.5885
rwrist -5.17283
rhand -9.15562 -408.326
rfingers 7.12502
rthumb 16.7966 -77.6194
lclavicle 7.95139e-016 -7.95139e-015
lhumerus -14.8284 -6.44247 78.0099
lradius 48.1419
lwrist 4.70641
lhand -25.6455 -14.9176
lfingers 7.12502
lthumb 0.888125 15.0603
rfemur -48.2645 5.40284 10.5814
rtibia 61.8946
rfoot -15.8917 -11.0643
rtoes -24.0555
lfemur -50.1894 -6.2844 -20.4631
ltibia 22.5647
lfoot -2.2525 0.619127
ltoes -25.7715
362
root 12.5707 18.5678 11.2898 -149.966 5.51958 176.217
lowerback -16.2259 -2.60563 -10.1905
upperback 3.55727 -1.04028 -1.21217
thorax 13.4203 -1.17985 4.13227
lowerneck -4.77168 -0.568757 -0.204976
upperneck 20.1273 -0.177214 3.01045
head 6.91931 0.564214 1.04311
rclavicle -8.34896e-015 -2.38542e-015
rhumerus -33.9249 -13.4568 -78.6865
rradius 39.1997
rwrist -4.61436
rhand -8.7707 -408.292
rfingers 7.12502
rthumb 17.1672 -77.5541
lclavicle -8.34896e-015 -2.38542e-015
lhumerus -14.2924 -6.52174 77.9026
lradius 48.4836
lwrist 5.10701
lhand -25.2959 -15.3114
lfingers 7.12502
lthumb 1.22579 14.6648
rfemur -48.9161 5.78069 10.9295
rtibia 61.7669
rfoot -16.281 -11.6062
rtoes -25.9115
lfemur -49.6558 -6.36851 -20.4888
ltibia 22.3624
lfoot -2.36798 0.608916
ltoes -25.0414
363
root 12.5551 18.5864 11.2373 -150.136 5.58345 176.176
lowerback -16.1732 -2.65225 -10.1776
upperback 3.48585 -1.11761 -1.20833
thorax 13.3161 -1.20797 4.11008
lowerneck -4.41362 -0.538838 -0.185025
upperneck 20.1822 -0.0875063 2.93047
head 6.87212 0.6121 1.02083
rclavicle 7.15625e-015 -5.56597e-015
rhumerus -34.1483 -13.7313 -78.494
rradius 38.5629
rwrist -4.0383
rhand -8.95724 -407.296
rfingers 7.12502
rthumb 16.9876 -76.5727
lclavicle 7.15625e-015 -5.56597e-015
lhumerus -14.6202 -6.40596 77.9031
lradius 48.9162
lwrist 5.17945
lhand -25.348 -14.8536
lfingers 7.12502
lthumb 1.17546 15.1229
rfemur -49.6109 6.03926 11.1358
rtibia 61.4123
rfoot -16.7165 -11.9622
rtoes -26.9776
lfemur -49.0798 -6.48762 -20.6277
ltibia 22.0895
lfoot -2.48658 0.661993
ltoes -25.1294
364
root 12.5404 18.6024 11.1893 -150.299 5.5829 176.199
lowerback -16.0063 -2.69864 -10.1325
upperback 3.4109 -1.22878 -1.14192
thorax 13.1443 -1.25181 4.13307
lowerneck -4.2197 -0.517348 -0.230427
upperneck 20.2695 -0.0266195 2.92541
head 6.86497 0.645914 1.03221
rclavicle -8.34896e-015 9.54166e-015
rhumerus -34.3104 -13.9996 -78.1734
rradius 37.7287
rwrist -3.32277
rhand -9.11023 -406.235
rfingers 7.12502
rthumb 16.8403 -75.5248
lclavicle -8.34896e-015 9.54166e-015
lhumerus -14.9637 -6.35504 77.9768
lradius 49.2586
lwrist 4.94547
lhand -25.5973 -14.0505
lfingers 7.12502
lthumb 0.934727 15.9272
rfemur -50.247 6.37686 11.4108
rtibia 60.8783
rfoot -17.4567 -12.1884
rtoes -26.4903
lfemur -48.5176 -6.60156 -20.6766
ltibia 21.772
lfoot -2.57965 0.697726
ltoes -25.7169
